# xmcd
#
# Track frame offsets: 
#        150
#        3263
#        30909
#        55209
#        78381
#        97110
#        135389
#        138891
#        162603
#        175888
#        186674
#        190028
#        217937
#        230412
#
# Disc length: 3367 seconds
#
# Revision: 1
# Processed by: cddbd v1.5.2PL0 Copyright (c) Steve Scherf et al.
# Submitted via: ExactAudioCopy v0.99pb5
#
DISCID=b50d250e
DTITLE=Mikkel Ploug-Sissel Vera Pettersen-Joachim Badenhorst - Equilib
DTITLE=rium
DYEAR=2007
DGENRE=Songlines
TTITLE0=Chorale I
TTITLE1=November
TTITLE2=Cathedral
TTITLE3=Fri
TTITLE4=Soft Spoken
TTITLE5=Epiphora
TTITLE6=Chorale II
TTITLE7=Chords
TTITLE8=Aeroide
TTITLE9=Takt
TTITLE10=Chorale III
TTITLE11=Warmth
TTITLE12=Ambiente
TTITLE13=Chorale IV
EXTD=YEAR: 2007
EXTT0=
EXTT1=
EXTT2=
EXTT3=
EXTT4=
EXTT5=
EXTT6=
EXTT7=
EXTT8=
EXTT9=
EXTT10=
EXTT11=
EXTT12=
EXTT13=
PLAYORDER=
